<svg width="1440" height="145" viewBox="0 0 1440 145" fill="none" xmlns="http://www.w3.org/2000/svg">
<path d="M0 145L24 124.286C48 103.571 96 62.1429 144 55.2165C192 48.5491 240 75.7366 288 75.9308C336 75.7366 384 48.5491 432 48.3549C480 48.5491 528 75.7366 576 89.7835C624 103.571 672 103.571 720 93.2143C768 82.8571 816 62.1429 864 48.3549C912 34.308 960 27.8348 1008 37.9978C1056 48.5491 1104 75.7366 1152 82.8571C1200 89.9777 1248 75.7366 1296 79.4263C1344 82.8571 1392 103.571 1416 113.929L1440 124.286V0H1416C1392 0 1344 0 1296 0C1248 0 1200 0 1152 0C1104 0 1056 0 1008 0C960 0 912 0 864 0C816 0 768 0 720 0C672 0 624 0 576 0C528 0 480 0 432 0C384 0 336 0 288 0C240 0 192 0 144 0C96 0 48 0 24 0H0V145Z" fill="#0085DE"/>
</svg>
