<svg width="1440" height="97" viewBox="0 0 1440 97" fill="none" xmlns="http://www.w3.org/2000/svg">
<path d="M0 62.3768L24 50.8357C48 39.2946 96 16.2125 144 12.3534C192 8.63863 240 23.7863 288 23.8945C336 23.7863 384 8.63863 432 8.53044C480 8.63863 528 23.7863 576 31.6126C624 39.2946 672 39.2946 720 33.5241C768 27.7535 816 16.2125 864 8.53044C912 0.704143 960 -2.90244 1008 2.7599C1056 8.63863 1104 23.7863 1152 27.7535C1200 31.7208 1248 23.7863 1296 25.842C1344 27.7535 1392 39.2946 1416 45.0652L1440 50.8357V97H1416C1392 97 1344 97 1296 97C1248 97 1200 97 1152 97C1104 97 1056 97 1008 97C960 97 912 97 864 97C816 97 768 97 720 97C672 97 624 97 576 97C528 97 480 97 432 97C384 97 336 97 288 97C240 97 192 97 144 97C96 97 48 97 24 97H0V62.3768Z" fill="#0085DE"/>
</svg>
